<svg xmlns="http://www.w3.org/2000/svg" width="96.513" height="48.302" viewBox="0 0 96.513 48.302"><g data-name="Group 545"><g data-name="Group 207"><g data-name="Group 203"><path data-name="Path 176" d="M11.684 9.309h84.829v38.993H11.684V9.309z" fill="#78f589" fill-rule="evenodd"/></g><g data-name="Group 204"><path data-name="Path 177" d="M-.003 0h84.829v38.994H-.003V0z" fill="#78f589" fill-rule="evenodd"/></g><g data-name="Group 205"><path data-name="Path 178" d="M5.145 5.144h84.819v38.124H5.145V5.144z" fill="#075f13" fill-rule="evenodd"/></g><g data-name="Group 206"><path data-name="Path 179" d="M29.808 22.704v.128c2.316.577 4.106 2.116 4.106 4.905 0 4.264-4 6.156-8.95 6.156H16.33V13.022h7.967c4.738 0 8.493 1.154 8.493 5.194a4.8 4.8 0 0 1-2.983 4.489zm-5.686-5.867h-2.316v4.488h2.281c2.351 0 3.369-.93 3.369-2.372 0-1.507-1.088-2.116-3.334-2.116zm.421 8.143h-2.737v5.1h2.739c2.667 0 4.036-.9 4.036-2.661s-1.334-2.437-4.036-2.437zm22.6-8.047c-1.685 0-2.773.609-2.773 1.7 0 1.218 1.439 1.635 3.475 2.372l2.843 1.058c2.843 1.026 4.528 2.757 4.528 5.675 0 3.495-3.194 6.54-8.7 6.54a12.846 12.846 0 0 1-8.528-3.046l2.878-3.238a9.642 9.642 0 0 0 5.756 1.988c2.071 0 3.019-.705 3.019-1.827 0-1.218-1.229-1.6-3.229-2.34l-2.913-1.154c-2.422-.866-4.633-2.693-4.633-5.707 0-3.495 3.439-6.316 8.283-6.316a11.566 11.566 0 0 1 7.405 2.6l-2.843 3.238a8.646 8.646 0 0 0-4.563-1.539zm23.69 9.137v-4.072h8.493v9.747a11.78 11.78 0 0 1-7.616 2.533c-6.317 0-11.3-3.623-11.3-10.676 0-6.957 5.124-10.965 11.231-10.965a10.265 10.265 0 0 1 7.3 2.725l-2.878 3.014a6.063 6.063 0 0 0-4.247-1.443c-3.369 0-5.826 2.436-5.826 6.476 0 4.168 2.071 6.572 6.317 6.572a4.063 4.063 0 0 0 2.176-.545v-3.362z" fill="#fff"/></g></g></g></svg>