<svg id="Group_490" data-name="Group 490" xmlns="http://www.w3.org/2000/svg" width="49.405" height="40.141" viewBox="0 0 49.405 40.141">
  <g id="Group_37" data-name="Group 37" transform="translate(0 0)">
    <path id="Path_131" data-name="Path 131" d="M49.4,52.752a21.116,21.116,0,0,1-5.836,1.6,10.072,10.072,0,0,0,4.456-5.6A20.242,20.242,0,0,1,41.6,51.205a10.128,10.128,0,0,0-17.52,6.926,10.429,10.429,0,0,0,.235,2.31A28.669,28.669,0,0,1,3.44,49.846,10.131,10.131,0,0,0,6.552,63.383a10,10,0,0,1-4.576-1.247v.111A10.175,10.175,0,0,0,10.091,72.2a10.108,10.108,0,0,1-2.656.333,8.956,8.956,0,0,1-1.918-.173,10.225,10.225,0,0,0,9.464,7.056,20.351,20.351,0,0,1-12.558,4.32A18.972,18.972,0,0,1,0,83.6a28.514,28.514,0,0,0,15.538,4.545c18.638,0,28.828-15.439,28.828-28.822,0-.448-.015-.88-.037-1.309A20.206,20.206,0,0,0,49.4,52.752Z" transform="translate(0 -48)" fill="#78f589"/>
  </g>
</svg>
